<?xml version="1.0" encoding="utf-8"?>
<!-- Generator: Adobe Illustrator 22.0.0, SVG Export Plug-In . SVG Version: 6.00 Build 0)  -->
<svg version="1.1" id="Capa_1" xmlns="http://www.w3.org/2000/svg" xmlns:xlink="http://www.w3.org/1999/xlink" x="0px" y="0px"
	 viewBox="0 0 24 24" style="enable-background:new 0 0 24 24;" xml:space="preserve">
<style type="text/css">
	.st0{fill:url(#SVGID_1_);}
	.st1{fill:none;stroke:#22037A;stroke-linecap:round;stroke-linejoin:round;stroke-miterlimit:10;}
	.st2{fill:#FFFFFF;stroke:#22037A;stroke-linecap:round;stroke-linejoin:round;stroke-miterlimit:10;}
	.st3{fill:url(#SVGID_2_);stroke:#22037A;stroke-linecap:round;stroke-linejoin:round;stroke-miterlimit:10;}
	.st4{fill:none;stroke:#5000FF;stroke-linecap:round;stroke-linejoin:round;stroke-miterlimit:10;}
</style>
<title>logo</title>
<desc>Created with Sketch.</desc>
<g>
	<g>
		<linearGradient id="SVGID_1_" gradientUnits="userSpaceOnUse" x1="10" y1="9.656" x2="20.417" y2="9.656">
			<stop  offset="0" style="stop-color:#0068FF"/>
			<stop  offset="1" style="stop-color:#0068FF;stop-opacity:0"/>
		</linearGradient>
		<path class="st0" d="M20.4,17h-4v-2.4c0-0.3-0.2-0.5-0.5-0.5h-1.3C12,14,10,12,10,9.5V2.4h4v7.1c0,0.3,0.2,0.5,0.5,0.5h1.3
			c2.5,0,4.5,2,4.5,4.5V17z"/>
	</g>
</g>
<path class="st1" d="M12,5.4v4.1c0,1.4,1.1,2.5,2.5,2.5h1.3c1.4,0,2.5,1.1,2.5,2.5V17"/>
<path class="st1" d="M12,5.4v4.1c0,1.4-1.1,2.5-2.5,2.5H8.1c-1.4,0-2.5,1.1-2.5,2.5V17"/>
<circle class="st2" cx="12" cy="3.5" r="1.9"/>
<path class="st2" d="M22.3,23.5h-7.4c-0.6,0-1-0.5-1-1V18c0-0.6,0.5-1,1-1h7.4c0.6,0,1,0.5,1,1v4.5C23.3,23,22.8,23.5,22.3,23.5z"/>
<linearGradient id="SVGID_2_" gradientUnits="userSpaceOnUse" x1="0.8958" y1="20.2083" x2="10.2917" y2="20.2083">
	<stop  offset="0" style="stop-color:#0068FF"/>
	<stop  offset="1" style="stop-color:#0068FF;stop-opacity:0"/>
</linearGradient>
<path class="st3" d="M9.3,23.5H1.9c-0.6,0-1-0.4-1-1V18c0-0.6,0.4-1,1-1h7.4c0.6,0,1,0.4,1,1v4.5C10.3,23,9.8,23.5,9.3,23.5z"/>
<g>
	<polyline class="st4" points="8.8,0.5 7.3,0.5 7.3,6.3 8.8,6.3 	"/>
	<polyline class="st4" points="15.2,6.3 16.8,6.3 16.8,0.5 15.2,0.5 	"/>
	<path class="st4" d="M8.8,6.3"/>
	<path class="st4" d="M15.2,6.3"/>
	<path class="st4" d="M15.2,0.5"/>
	<path class="st4" d="M8.8,0.5"/>
	<path class="st4" d="M15.2,0.5"/>
	<path class="st4" d="M15.2,6.3"/>
	<path class="st4" d="M8.8,6.3"/>
	<path class="st4" d="M8.8,0.5"/>
</g>
</svg>
