<?xml version="1.0" encoding="utf-8"?>
<!-- Generator: Adobe Illustrator 22.0.0, SVG Export Plug-In . SVG Version: 6.00 Build 0)  -->
<svg version="1.1" id="Capa_1" xmlns="http://www.w3.org/2000/svg" xmlns:xlink="http://www.w3.org/1999/xlink" x="0px" y="0px"
	 viewBox="0 0 24 24" style="enable-background:new 0 0 24 24;" xml:space="preserve">
<style type="text/css">
	.st0{fill:#FFFFFF;}
	.st1{fill:#22037A;}
	.st2{fill:url(#SVGID_1_);}
	.st3{fill:#5000FF;}
	.st4{fill:none;stroke:#22037A;stroke-linecap:round;stroke-linejoin:round;stroke-miterlimit:10;}
	.st5{fill:#FFFFFF;stroke:#22037A;stroke-linecap:round;stroke-linejoin:round;stroke-miterlimit:10;}
	.st6{fill:url(#SVGID_2_);stroke:#22037A;stroke-width:0.75;stroke-linecap:round;stroke-linejoin:round;stroke-miterlimit:10;}
	.st7{fill:none;stroke:#22037A;stroke-width:0.5;stroke-linecap:round;stroke-linejoin:round;stroke-miterlimit:10;}
</style>
<title>logo</title>
<desc>Created with Sketch.</desc>
<g>
	<path class="st0" d="M4.2,14.5c-0.2,0-0.3-0.1-0.3-0.3V0.8c0-0.2,0.1-0.3,0.3-0.3h15.7c0.2,0,0.3,0.1,0.3,0.3v13.4
		c0,0.2-0.1,0.3-0.3,0.3H4.2z"/>
	<g>
		<path class="st1" d="M19.6,1v13H4.4V1H19.6 M19.8,0H4.2C3.7,0,3.4,0.4,3.4,0.8v13.4c0,0.4,0.4,0.8,0.8,0.8h15.7
			c0.4,0,0.8-0.4,0.8-0.8V0.8C20.6,0.4,20.3,0,19.8,0L19.8,0z"/>
	</g>
</g>
<g>
	<path class="st0" d="M2.3,17.4c-0.1,0-0.2-0.1-0.2-0.2v-15C2.1,2.1,2.2,2,2.3,2h19.3c0.1,0,0.2,0.1,0.2,0.2v15
		c0,0.1-0.1,0.2-0.2,0.2C21.6,17.4,2.3,17.4,2.3,17.4z"/>
	
		<linearGradient id="SVGID_1_" gradientUnits="userSpaceOnUse" x1="2.125" y1="16.3" x2="21.875" y2="16.3" gradientTransform="matrix(1 0 0 -1 0 26)">
		<stop  offset="0" style="stop-color:#0068FF"/>
		<stop  offset="1" style="stop-color:#0068FF;stop-opacity:0"/>
	</linearGradient>
	<path class="st2" d="M2.3,17.4c-0.1,0-0.2-0.1-0.2-0.2v-15C2.1,2.1,2.2,2,2.3,2h19.3c0.1,0,0.2,0.1,0.2,0.2v15
		c0,0.1-0.1,0.2-0.2,0.2C21.6,17.4,2.3,17.4,2.3,17.4z"/>
	<path class="st3" d="M21.4,2.5v1.3v13.1H2.6v-13V2.5H21.4 M21.7,1.5H2.3c-0.4,0-0.7,0.3-0.7,0.7v1.6v13.3c0,0.4,0.3,0.7,0.7,0.7
		h19.3c0.4,0,0.7-0.3,0.7-0.7V3.9V2.3C22.4,1.9,22.1,1.5,21.7,1.5L21.7,1.5z"/>
</g>
<g>
	<path class="st0" d="M1,20.4c-0.3,0-0.5-0.2-0.5-0.5V4.4c0-0.3,0.2-0.5,0.5-0.5h22c0.3,0,0.5,0.2,0.5,0.5v15.4
		c0,0.3-0.2,0.5-0.5,0.5H1V20.4z"/>
	<path class="st1" d="M23,4.4L23,4.4v15.5H1V4.4H23 M23,3.4H1c-0.6,0-1,0.5-1,1v15.4c0,0.6,0.5,1,1,1h22c0.6,0,1-0.5,1-1V4.4
		C24,3.9,23.5,3.4,23,3.4L23,3.4z"/>
</g>
<line class="st4" x1="2.9" y1="22.8" x2="23.6" y2="22.8"/>
<circle class="st5" cx="1" cy="22.8" r="0.5"/>
<linearGradient id="SVGID_2_" gradientUnits="userSpaceOnUse" x1="6.1643" y1="14.3695" x2="16.1643" y2="10.9945">
	<stop  offset="0" style="stop-color:#0068FF"/>
	<stop  offset="1" style="stop-color:#0068FF;stop-opacity:0"/>
</linearGradient>
<circle class="st6" cx="12" cy="12.4" r="4.5"/>
<g>
	<path class="st7" d="M10,13.4c0.4,0.7,1.1,1.1,2,1.1s1.6-0.5,2-1.1"/>
</g>
<g>
	<circle class="st1" cx="10.7" cy="11.5" r="0.6"/>
	<circle class="st1" cx="13.3" cy="11.5" r="0.6"/>
</g>
</svg>
