<?xml version="1.0" encoding="utf-8"?>
<!-- Generator: Adobe Illustrator 22.0.0, SVG Export Plug-In . SVG Version: 6.00 Build 0)  -->
<svg version="1.1" id="Capa_1" xmlns="http://www.w3.org/2000/svg" xmlns:xlink="http://www.w3.org/1999/xlink" x="0px" y="0px"
	 viewBox="0 0 24 24" style="enable-background:new 0 0 24 24;" xml:space="preserve">
<style type="text/css">
	.st0{fill:none;stroke:#5000FF;stroke-miterlimit:10;}
	.st1{fill:none;stroke:#22037A;stroke-miterlimit:10;}
	.st2{fill:#FFFFFF;}
	.st3{fill:url(#SVGID_1_);}
	.st4{fill:#22037A;}
	.st5{fill:url(#SVGID_2_);}
	.st6{fill:url(#SVGID_3_);}
	.st7{fill:url(#SVGID_4_);}
	.st8{fill:url(#SVGID_5_);}
	.st9{fill:url(#SVGID_6_);}
</style>
<title>logo</title>
<desc>Created with Sketch.</desc>
<g>
	<path class="st0" d="M16,9.7"/>
	<path class="st0" d="M12,16.5"/>
	<path class="st0" d="M16,14.3"/>
	<path class="st0" d="M12,7.5"/>
	<path class="st0" d="M8,9.7"/>
	<path class="st0" d="M16,9.7"/>
	<path class="st0" d="M12,7.5"/>
	<path class="st0" d="M8,14.3"/>
	<path class="st0" d="M12,16.5"/>
	<path class="st0" d="M8,14.3"/>
	<path class="st0" d="M8,9.7"/>
	<line class="st0" x1="12" y1="7.5" x2="12" y2="2.8"/>
	<line class="st0" x1="12" y1="16.5" x2="12" y2="21.2"/>
	<path class="st0" d="M12,7.5"/>
	<path class="st0" d="M12,16.5"/>
	<line class="st0" x1="16" y1="14.3" x2="20" y2="16.6"/>
	<path class="st0" d="M8,9.7"/>
	<path class="st0" d="M16,14.3"/>
	<line class="st0" x1="8" y1="9.7" x2="4" y2="7.4"/>
	<line class="st0" x1="4" y1="16.6" x2="8" y2="14.3"/>
	<path class="st0" d="M16,9.7"/>
	<line class="st0" x1="20" y1="7.4" x2="16" y2="9.7"/>
	<path class="st0" d="M8,14.3"/>
</g>
<ellipse class="st1" cx="12" cy="12" rx="4.5" ry="4.4"/>
<g>
	<circle class="st2" cx="12" cy="2" r="1.5"/>
	<linearGradient id="SVGID_1_" gradientUnits="userSpaceOnUse" x1="10.5" y1="2" x2="13.5" y2="2">
		<stop  offset="0" style="stop-color:#0068FF"/>
		<stop  offset="1" style="stop-color:#0068FF;stop-opacity:0"/>
	</linearGradient>
	<circle class="st3" cx="12" cy="2" r="1.5"/>
</g>
<path class="st4" d="M12,1c0.5,0,1,0.4,1,1s-0.4,1-1,1s-1-0.4-1-1S11.5,1,12,1 M12,0c-1.1,0-2,0.9-2,2s0.9,2,2,2s2-0.9,2-2
	S13.1,0,12,0L12,0z"/>
<g>
	<circle class="st2" cx="20.4" cy="16.8" r="1.4"/>
	<linearGradient id="SVGID_2_" gradientUnits="userSpaceOnUse" x1="19" y1="16.8" x2="21.8" y2="16.8">
		<stop  offset="0" style="stop-color:#0068FF"/>
		<stop  offset="1" style="stop-color:#0068FF;stop-opacity:0"/>
	</linearGradient>
	<circle class="st5" cx="20.4" cy="16.8" r="1.4"/>
</g>
<path class="st4" d="M20.4,15.8c0.5,0,0.9,0.4,0.9,0.9s-0.4,0.9-0.9,0.9s-0.9-0.4-0.9-0.9S19.9,15.8,20.4,15.8 M20.4,14.8
	c-1.1,0-1.9,0.9-1.9,1.9s0.9,1.9,1.9,1.9s1.9-0.9,1.9-1.9S21.4,14.8,20.4,14.8L20.4,14.8z"/>
<g>
	<circle class="st2" cx="12" cy="21.5" r="2"/>
	<linearGradient id="SVGID_3_" gradientUnits="userSpaceOnUse" x1="10" y1="21.5" x2="14" y2="21.5">
		<stop  offset="0" style="stop-color:#0068FF"/>
		<stop  offset="1" style="stop-color:#0068FF;stop-opacity:0"/>
	</linearGradient>
	<circle class="st6" cx="12" cy="21.5" r="2"/>
</g>
<path class="st4" d="M12,20c0.8,0,1.5,0.7,1.5,1.5S12.8,23,12,23s-1.5-0.7-1.5-1.5S11.2,20,12,20 M12,19c-1.4,0-2.5,1.1-2.5,2.5
	S10.6,24,12,24s2.5-1.1,2.5-2.5S13.4,19,12,19L12,19z"/>
<g>
	<circle class="st2" cx="3.3" cy="6.9" r="1.1"/>
	<linearGradient id="SVGID_4_" gradientUnits="userSpaceOnUse" x1="2.2" y1="6.9" x2="4.4" y2="6.9">
		<stop  offset="0" style="stop-color:#0068FF"/>
		<stop  offset="1" style="stop-color:#0068FF;stop-opacity:0"/>
	</linearGradient>
	<circle class="st7" cx="3.3" cy="6.9" r="1.1"/>
</g>
<path class="st4" d="M3.3,6.3c0.3,0,0.6,0.3,0.6,0.6S3.7,7.5,3.3,7.5S2.7,7.2,2.7,6.9S3,6.3,3.3,6.3 M3.3,5.3C2.4,5.3,1.7,6,1.7,6.9
	s0.7,1.6,1.6,1.6s1.6-0.7,1.6-1.6S4.2,5.3,3.3,5.3L3.3,5.3z"/>
<g>
	<circle class="st2" cx="3.8" cy="16.9" r="2.1"/>
	<linearGradient id="SVGID_5_" gradientUnits="userSpaceOnUse" x1="1.7" y1="16.9" x2="5.9" y2="16.9">
		<stop  offset="0" style="stop-color:#0068FF"/>
		<stop  offset="1" style="stop-color:#0068FF;stop-opacity:0"/>
	</linearGradient>
	<circle class="st8" cx="3.8" cy="16.9" r="2.1"/>
</g>
<path class="st4" d="M3.8,15.4c0.9,0,1.6,0.7,1.6,1.6s-0.7,1.6-1.6,1.6S2.2,17.9,2.2,17S2.9,15.4,3.8,15.4 M3.8,14.4
	c-1.4,0-2.6,1.1-2.6,2.6s1.1,2.6,2.6,2.6s2.6-1.1,2.6-2.6S5.2,14.4,3.8,14.4L3.8,14.4z"/>
<g>
	<circle class="st2" cx="20.1" cy="7.2" r="2.2"/>
	<linearGradient id="SVGID_6_" gradientUnits="userSpaceOnUse" x1="17.9" y1="7.2" x2="22.3" y2="7.2">
		<stop  offset="0" style="stop-color:#0068FF"/>
		<stop  offset="1" style="stop-color:#0068FF;stop-opacity:0"/>
	</linearGradient>
	<circle class="st9" cx="20.1" cy="7.2" r="2.2"/>
</g>
<path class="st4" d="M20.1,5.5c0.9,0,1.7,0.7,1.7,1.7S21,8.9,20.1,8.9s-1.7-0.7-1.7-1.7S19.1,5.5,20.1,5.5 M20.1,4.5
	c-1.5,0-2.7,1.2-2.7,2.7s1.2,2.7,2.7,2.7s2.7-1.2,2.7-2.7S21.5,4.5,20.1,4.5L20.1,4.5z"/>
</svg>
