<?xml version="1.0" encoding="utf-8"?>
<!-- Generator: Adobe Illustrator 22.0.0, SVG Export Plug-In . SVG Version: 6.00 Build 0)  -->
<svg version="1.1" id="Capa_1" xmlns="http://www.w3.org/2000/svg" xmlns:xlink="http://www.w3.org/1999/xlink" x="0px" y="0px"
	 viewBox="0 0 24 24" style="enable-background:new 0 0 24 24;" xml:space="preserve">
<style type="text/css">
	.st0{fill:#333333;}
	.st1{fill:#FFFFFF;}
</style>
<title>logo</title>
<desc>Created with Sketch.</desc>
<g id="Landing-podcast">
	<g id="UI-Kit" transform="translate(-465.000000, -650.000000)">
		<g id="mobileNav-bar_expanded" transform="translate(449.000000, 640.000000)">
			<g id="mobileNav-bar_hero">
				<g id="logo" transform="translate(16.000000, 10.000000)">
					<g id="Oval-Copy">
						<circle class="st0" cx="12" cy="12" r="11.5"/>
						<path class="st1" d="M12,1c6.1,0,11,4.9,11,11s-4.9,11-11,11S1,18.1,1,12S5.9,1,12,1 M12,0C5.4,0,0,5.4,0,12s5.4,12,12,12
							s12-5.4,12-12S18.6,0,12,0L12,0z"/>
					</g>
					<path class="st1" d="M16.9,9.2c0-2-1.6-3.7-3.7-3.7S9.6,7.1,9.6,9.2s1.6,3.7,3.7,3.7c1,0,1.9-0.4,2.5-1v1.5
						c0,2.3-1.7,4.2-3.9,4.2S8,15.6,8,13.3V9.7h0.9L7.4,7.6L6,9.7h0.9v3.5c0,0.7,0.1,1.4,0.4,2.1C7.5,16,7.9,16.5,8.3,17
						c0.5,0.5,1,0.9,1.6,1.2c0.6,0.3,1.3,0.4,2,0.4c0.7,0,1.3-0.1,2-0.4c0.6-0.3,1.1-0.7,1.6-1.2c0.5-0.5,0.8-1.1,1.1-1.7
						c0.3-0.7,0.4-1.4,0.4-2.1V9.4C16.9,9.3,16.9,9.2,16.9,9.2z M13.2,11.6c-1.3,0-2.4-1.1-2.4-2.4s1.1-2.4,2.4-2.4s2.4,1.1,2.4,2.4
						S14.6,11.6,13.2,11.6z"/>
				</g>
			</g>
		</g>
	</g>
</g>
</svg>
